<!DOCTYPE svg PUBLIC "-//W3C//DTD SVG 1.1//EN" "http://www.w3.org/Graphics/SVG/1.1/DTD/svg11.dtd">
<!-- Uploaded to: SVG Repo, www.svgrepo.com, Transformed by: SVG Repo Mixer Tools -->
<svg height="800px" width="800px" version="1.1" id="Layer_1" xmlns="http://www.w3.org/2000/svg" xmlns:xlink="http://www.w3.org/1999/xlink" viewBox="-35.84 -35.84 583.68 583.68" xml:space="preserve" fill="#ffffff" stroke="#ffffff" stroke-width="17.919999999999998">
<g id="SVGRepo_bgCarrier" stroke-width="0"/>
<g id="SVGRepo_tracerCarrier" stroke-linecap="round" stroke-linejoin="round"/>
<g id="SVGRepo_iconCarrier"> <g> <g> <path style="fill:#FFFFFF;" d="M385.274,254.656L357.311,18.519C356.221,8.715,347.506,0,336.613,0H168.851 c-10.894,0-19.609,7.626-20.698,18.519l-25.739,237.832c-19.011,8.421-31.997,27.314-31.997,49.76v41.396v142.706 c0,11.983,9.804,21.787,21.787,21.787c10.894,0,20.698-9.804,21.787-21.787V369.294h244.017v120.919 c0,11.983,9.804,21.787,21.787,21.787s21.787-9.804,21.787-21.787V347.506v-41.396 C421.583,282.005,406.608,261.993,385.274,254.656z M132.902,305.021c0-4.885,3.044-9.16,7.31-11.009 c0.813,0.076,1.644,0.115,2.494,0.115h223.319c1.621,0,3.181-0.185,4.672-0.525c4.829,1.551,8.401,6.127,8.401,11.419v20.698 H132.902V305.021z M189.549,42.485h129.634l22.877,209.157H166.672L189.549,42.485z"/> </g> </g> </g>
</svg>