<!DOCTYPE svg PUBLIC "-//W3C//DTD SVG 1.1//EN" "http://www.w3.org/Graphics/SVG/1.1/DTD/svg11.dtd">
<!-- Uploaded to: SVG Repo, www.svgrepo.com, Transformed by: SVG Repo Mixer Tools -->
<svg fill="#ffffff" height="202px" width="202px" version="1.1" id="Layer_1" xmlns="http://www.w3.org/2000/svg" xmlns:xlink="http://www.w3.org/1999/xlink" viewBox="-61.44 -61.44 634.88 634.88" xml:space="preserve" stroke="#ffffff" stroke-width="26.624000000000002">
<g id="SVGRepo_bgCarrier" stroke-width="0"/>
<g id="SVGRepo_tracerCarrier" stroke-linecap="round" stroke-linejoin="round" stroke="#CCCCCC" stroke-width="6.144"/>
<g id="SVGRepo_iconCarrier"> <g> <g> <path d="M394.585,188.895H279.962h-47.936H117.44c-6.616,0-11.981,5.364-11.981,11.981s5.365,11.981,11.981,11.981h102.607 v208.482c0,6.617,5.365,11.981,11.981,11.981h47.936c6.616,0,11.981-5.364,11.981-11.981V212.857h102.64 c6.616,0,11.981-5.364,11.981-11.981S401.201,188.895,394.585,188.895z M267.981,409.358h-23.974V212.857h23.974V409.358z"/> </g> </g> <g> <g> <path d="M501.513,78.775c-6.557-0.821-12.556,3.826-13.383,10.391l-0.563,4.472c-0.826,6.566,3.827,12.557,10.392,13.383 c0.508,0.064,1.011,0.095,1.511,0.095c5.95,0,11.11-4.429,11.872-10.486l0.563-4.473 C512.731,85.592,508.079,79.601,501.513,78.775z"/> </g> </g> <g> <g> <path d="M496.432,119.175c-6.567-0.822-12.556,3.827-13.383,10.392L465.487,269.18h-77.097c-22.575,0-40.939,18.366-40.939,40.939 v9.98v101.24c0,6.617,5.365,11.981,11.981,11.981s11.981-5.364,11.981-11.981V332.08h92.661v89.259 c0,6.617,5.365,11.981,11.981,11.981c6.616,0,11.981-5.364,11.981-11.981v-101.24v-38.187l18.787-149.353 C507.65,125.993,502.996,120.002,496.432,119.175z M464.075,308.118h-92.544c0.993-8.423,8.175-14.976,16.86-14.976h75.684 V308.118z"/> </g> </g> <g> <g> <path d="M123.61,269.18H46.513L23.87,89.167c-0.824-6.564-6.809-11.218-13.383-10.392C3.923,79.601-0.731,85.592,0.095,92.158 l23.869,189.754v38.187v101.24c0,6.617,5.365,11.981,11.981,11.981c6.616,0,11.981-5.364,11.981-11.981V332.08h92.661v89.259 c0,6.617,5.365,11.981,11.981,11.981c6.616,0,11.981-5.364,11.981-11.981v-101.24v-9.98 C164.549,287.545,146.184,269.18,123.61,269.18z M47.926,308.118v-14.976h75.684c8.685,0,15.866,6.554,16.86,14.976H47.926z"/> </g> </g> </g>
</svg>